<svg width="13" height="13" viewBox="0 0 13 13" fill="none" xmlns="http://www.w3.org/2000/svg">
<path id="Exclude" fill-rule="evenodd" clip-rule="evenodd" d="M6.4 12.5823C9.93462 12.5823 12.8 9.89598 12.8 6.58228C12.8 5.02996 12.1712 3.61532 11.1394 2.55003L11.1535 2.53586C11.3488 2.34059 11.3488 2.02401 11.1535 1.82875C10.9583 1.63349 10.6417 1.63349 10.4464 1.82875L10.3868 1.88836C9.29317 1.07087 7.90745 0.582275 6.4 0.582275C2.86538 0.582275 0 3.26857 0 6.58228C0 8.1346 0.628806 9.54923 1.66065 10.6145L1.64643 10.6287C1.45116 10.824 1.45116 11.1406 1.64643 11.3359C1.84169 11.5311 2.15827 11.5311 2.35353 11.3359L2.4132 11.2762C3.50683 12.0937 4.89255 12.5823 6.4 12.5823ZM2.4132 11.2762L11.1394 2.55003C10.9079 2.31111 10.6562 2.08976 10.3868 1.88836L1.66065 10.6145C1.89207 10.8534 2.14377 11.0748 2.4132 11.2762Z" fill="#0D3A91"/>
</svg>
