<svg width="16" height="16" viewBox="0 0 16 16" fill="none" xmlns="http://www.w3.org/2000/svg">
<g id="material-symbols:arrow-forward-ios-rounded">
<path id="Vector" d="M4.76666 14.0667C4.6 13.9 4.51666 13.7027 4.51666 13.4747C4.51666 13.2471 4.6 13.05 4.76666 12.8834L9.65 8.00002L4.75 3.10002C4.59444 2.94446 4.51666 2.75002 4.51666 2.51669C4.51666 2.28335 4.6 2.08335 4.76666 1.91669C4.93333 1.75002 5.13066 1.66669 5.35866 1.66669C5.58622 1.66669 5.78333 1.75002 5.95 1.91669L11.55 7.53335C11.6167 7.60002 11.664 7.67224 11.692 7.75002C11.7196 7.8278 11.7333 7.91113 11.7333 8.00002C11.7333 8.08891 11.7196 8.17224 11.692 8.25002C11.664 8.3278 11.6167 8.40002 11.55 8.46669L5.93333 14.0834C5.77777 14.2389 5.58622 14.3167 5.35866 14.3167C5.13066 14.3167 4.93333 14.2334 4.76666 14.0667Z" fill="#929292"/>
</g>
</svg>
