<svg width="20" height="22" viewBox="0 0 20 22" fill="none" xmlns="http://www.w3.org/2000/svg">
<g id="caduceus">
<path id="Combined Shape" fill-rule="evenodd" clip-rule="evenodd" d="M14.6579 0.669334H19.5326C19.5326 0.669334 19.718 6.02468 14.6579 6.02468C13.7176 6.02468 12.8872 5.57549 12.3836 4.88867C12.1826 4.61422 11.7744 4.57941 11.5303 4.81905L10.4849 5.84393V9.30951L9.09394 9.74797V2.49684C8.67871 2.26522 8.39846 1.83412 8.39846 1.33874C8.39846 0.575613 9.06195 -0.0389141 9.86525 0.0019242C10.5837 0.0380711 11.1651 0.617113 11.1804 1.3093C11.1915 1.81671 10.9085 2.26053 10.4849 2.49684V3.62079L12.5804 1.56568V1.56702C13.0902 1.0161 13.8316 0.669334 14.6579 0.669334ZM7.18852 4.8719C7.39063 4.59643 7.80115 4.56217 8.04664 4.80203L8.39841 5.14671V2.91539L6.99063 1.53735V1.53802C6.47801 0.985746 5.73249 0.637706 4.90171 0.637706H0C0 0.637706 0.295127 6.01276 4.90171 6.01276C5.84719 6.01276 6.68222 5.56192 7.18852 4.8719ZM7.61949 10.2434L7.61178 10.2461C7.02395 10.4374 6.50625 10.7019 6.07185 11.0234C5.15195 10.3239 5.00132 9.51839 5.00132 9.06729C5.00132 8.42889 5.15126 7.82138 5.85396 7.24004C6.58889 6.61509 7.54521 6.57816 7.89485 7.12727C8.21641 7.63207 7.90184 8.43897 7.1928 8.93035C6.94621 9.10085 6.68486 9.20961 6.43477 9.25927C6.52164 9.52846 6.78576 9.80234 7.18862 10.0333C7.33081 10.1145 7.44641 10.1742 7.61949 10.2434ZM11.7287 7.41813C12.0647 6.752 12.9845 6.79836 13.6902 7.55476C14.3663 8.25912 14.5097 8.99519 14.5117 9.76949C14.5117 10.3941 14.3232 11.5792 13.0579 12.4926C12.7691 12.7008 12.5516 12.8268 12.1192 13.0147C13.0445 13.5792 13.5798 14.4706 13.5798 15.4881C13.5798 16.961 12.5657 17.8028 11.4197 18.303C11.9866 18.7935 12.2856 19.4336 12.2856 20.0932C12.2856 20.5218 12.2411 20.9716 11.6688 21.4954L11.6681 21.4946C11.6345 21.5271 11.5927 21.5475 11.5462 21.5475C11.4385 21.5475 11.3509 21.4417 11.3509 21.3116C11.3509 21.2685 11.3611 21.2286 11.3779 21.1936L11.3772 21.1928C11.8102 20.3152 11.3233 19.7614 10.5496 19.3693V20.7333C10.5496 21.1823 10.248 21.5466 9.87626 21.5466C9.50458 21.5466 9.2029 21.1823 9.2029 20.7333V19.3685C8.39756 19.7768 7.98278 20.2485 8.37333 21.1928C8.39015 21.2278 8.40025 21.2677 8.40025 21.3108C8.40025 21.4409 8.31271 21.5466 8.20496 21.5466C8.15853 21.5466 8.11609 21.5263 8.08242 21.4938L8.08175 21.4946C7.49056 20.9936 7.45147 20.4893 7.45147 20.0826C7.45147 19.3742 7.75588 18.7715 8.32215 18.2974C8.59386 18.071 8.76004 17.982 9.44483 17.6152L9.44519 17.6151C9.56979 17.5483 9.71157 17.4724 9.87426 17.3848C10.1197 17.2525 10.3417 17.135 10.542 17.029L10.5424 17.0288C11.8386 16.3429 12.231 16.1352 12.231 15.4864C12.231 15.1774 11.8661 14.7154 11.1698 14.4291C11.0073 14.3635 10.8518 14.3014 10.7028 14.2419L10.7026 14.2419L10.5483 14.1802V15.2172L9.20157 15.9427V14.1794C9.00561 14.2575 8.79822 14.3405 8.57803 14.4291C7.88177 14.7146 7.51678 15.1774 7.51678 15.4864C7.51678 15.9086 7.6811 16.155 8.21373 16.4804C7.75113 16.7544 7.35519 17.0969 7.03802 17.4913C6.53367 17.0066 6.17076 16.3445 6.17076 15.4864C6.17076 14.2819 6.92089 13.2538 8.1814 12.7365C9.08375 12.3746 9.77056 12.103 10.3039 11.8931C11.8593 11.279 12.0418 11.2026 12.4075 10.9391C12.7947 10.6593 13.0485 10.3274 13.132 10.0013C12.8916 9.94111 12.6404 9.80934 12.4034 9.60275C11.722 9.00739 11.4203 8.02975 11.7287 7.41813Z" fill="url(#paint0_linear_15_34)"/>
</g>
<defs>
<linearGradient id="paint0_linear_15_34" x1="15.0358" y1="-8.71596" x2="-7.64175" y2="-8.71596" gradientUnits="userSpaceOnUse">
<stop stop-color="#1A4FBA"/>
<stop offset="0.286458" stop-color="#F3C294"/>
<stop offset="1" stop-color="#F4FAFF"/>
</linearGradient>
</defs>
</svg>
